<?xml version="1.0" standalone="no"?>
<!DOCTYPE svg PUBLIC "-//W3C//DTD SVG 20010904//EN"
 "http://www.w3.org/TR/2001/REC-SVG-20010904/DTD/svg10.dtd">
<svg version="1.0" xmlns="http://www.w3.org/2000/svg"
 width="1080.000000pt" height="1066.000000pt" viewBox="0 0 1080.000000 1066.000000"
 preserveAspectRatio="xMidYMid meet">
<metadata>
Created by potrace 1.16, written by Peter Selinger 2001-2019
</metadata>
<g transform="translate(0.000000,1066.000000) scale(0.100000,-0.100000)"
fill="#000000" stroke="none">
<path d="M4500 8312 c-117 -17 -132 -28 -127 -94 3 -27 9 -54 16 -61 6 -6 11
-29 11 -51 0 -23 9 -86 21 -141 11 -55 26 -128 32 -162 7 -38 20 -71 33 -83
20 -20 25 -21 138 -11 65 6 125 16 133 22 11 10 22 10 50 0 32 -12 38 -12 49
4 16 22 25 99 18 155 -3 25 -5 70 -4 100 1 30 -3 63 -8 75 -9 18 -38 113 -58
185 -10 37 -33 59 -68 64 -73 12 -147 11 -236 -2z"/>
<path d="M5316 7925 c-3 -9 -11 -15 -18 -14 -34 6 -76 -36 -109 -110 -19 -41
-43 -86 -53 -99 -12 -16 -19 -38 -18 -58 2 -28 -2 -35 -21 -39 -20 -5 -24 -16
-35 -81 -6 -41 -9 -80 -7 -87 2 -6 6 -43 9 -82 8 -101 23 -208 35 -236 6 -13
15 -62 21 -109 5 -46 15 -89 20 -94 6 -6 10 -25 10 -43 0 -22 10 -43 30 -66
17 -19 30 -41 30 -48 0 -8 16 -34 35 -58 19 -24 35 -47 35 -52 0 -16 -46 -79
-62 -84 -10 -4 -18 -15 -18 -25 0 -10 -5 -22 -11 -25 -5 -4 -14 -18 -19 -31
-6 -14 -18 -24 -29 -24 -21 0 -111 -106 -141 -165 -13 -26 -22 -30 -60 -33
-35 -2 -51 3 -72 20 -15 13 -46 37 -69 53 -23 17 -48 44 -55 62 -7 17 -24 39
-37 50 -13 10 -32 34 -43 53 -10 19 -38 53 -61 76 -24 23 -43 46 -43 52 0 7
-7 12 -15 12 -7 0 -18 6 -22 14 -4 8 -24 32 -44 53 -20 22 -43 51 -50 65 -18
34 -83 111 -131 156 -21 20 -38 43 -38 52 0 9 -36 54 -80 99 -44 46 -78 87
-75 91 6 9 -21 40 -35 40 -25 0 -27 -61 -7 -165 3 -11 8 -38 11 -60 22 -122
55 -255 68 -269 4 -6 8 -20 8 -33 0 -37 52 -124 116 -194 23 -25 45 -55 48
-67 4 -12 12 -22 17 -22 6 0 17 -16 25 -35 8 -20 25 -40 37 -44 23 -9 77 -78
77 -99 0 -19 -42 -36 -110 -43 -36 -4 -85 -12 -110 -17 -25 -6 -78 -13 -119
-16 -41 -3 -79 -10 -85 -16 -5 -5 -29 -10 -52 -10 -24 0 -46 -4 -49 -10 -3 -5
-15 -10 -27 -10 -11 0 -34 -10 -51 -22 -36 -26 -153 -42 -161 -23 -2 6 -14 72
-26 146 -13 74 -30 142 -38 151 -8 10 -30 22 -49 29 -27 9 -40 8 -67 -5 -19
-9 -46 -16 -60 -16 -26 0 -91 -13 -161 -33 -22 -7 -43 -11 -46 -10 -4 1 -15
-7 -24 -17 -17 -19 -17 -25 -1 -127 10 -60 21 -124 26 -143 5 -19 11 -60 14
-90 l6 -55 -134 -82 c-74 -46 -141 -83 -149 -83 -8 0 -37 -17 -64 -39 -27 -21
-63 -46 -80 -55 -17 -8 -41 -29 -53 -46 -12 -16 -28 -30 -36 -30 -14 0 -74
-51 -217 -182 -23 -21 -47 -38 -53 -38 -7 0 -27 -25 -44 -55 -17 -30 -43 -64
-57 -75 -15 -11 -38 -37 -52 -58 -14 -20 -31 -43 -38 -50 -7 -8 -21 -28 -29
-45 -9 -18 -31 -48 -49 -67 -18 -19 -38 -53 -45 -75 -7 -22 -18 -47 -25 -55
-7 -8 -16 -41 -20 -72 -4 -32 -13 -63 -21 -69 -8 -6 -14 -23 -14 -38 0 -15 -5
-32 -11 -38 -5 -5 -12 -31 -13 -55 -2 -25 -7 -52 -12 -59 -23 -37 -30 -183
-20 -409 8 -187 13 -218 37 -231 11 -5 17 -14 14 -19 -3 -4 0 -21 6 -37 6 -15
11 -39 11 -53 -1 -45 78 -113 133 -115 15 0 21 -8 23 -31 2 -24 10 -33 38 -43
19 -7 42 -21 52 -31 9 -10 33 -21 52 -25 19 -4 45 -18 56 -31 30 -32 100 -52
125 -36 11 7 25 10 31 6 6 -4 29 -9 52 -11 23 -2 66 -10 96 -17 56 -14 86 -13
150 5 21 6 51 7 75 2 48 -11 104 6 147 43 28 23 64 37 84 33 32 -6 64 6 98 36
21 19 42 35 46 35 5 0 15 6 22 14 8 7 56 34 108 59 65 30 109 60 140 91 26 27
53 46 66 46 13 0 29 11 39 28 10 15 42 49 71 75 58 53 79 102 71 166 -2 20 0
64 5 98 6 42 6 86 -1 134 -8 51 -8 75 -1 84 8 9 8 15 0 20 -5 3 -10 14 -10 25
0 10 -7 20 -15 24 -8 3 -12 12 -9 21 8 20 -39 21 -56 0 -7 -8 -20 -15 -29 -15
-23 0 -117 -72 -172 -131 -50 -55 -91 -81 -129 -84 -79 -5 -107 -17 -129 -55
-19 -34 -25 -37 -60 -36 -21 0 -46 -6 -56 -14 -26 -21 -83 -39 -143 -46 -29
-3 -64 -9 -77 -14 -12 -5 -33 -6 -45 -3 -12 3 -31 1 -43 -5 -12 -6 -56 -15
-97 -20 -67 -9 -77 -8 -90 8 -22 26 -56 33 -82 17 -13 -8 -39 -18 -60 -21 -30
-6 -41 -2 -64 19 -15 14 -39 28 -53 31 -14 2 -40 9 -57 14 -17 6 -45 10 -63
10 -27 0 -31 3 -26 19 8 27 -3 48 -29 55 -13 3 -40 26 -61 52 -37 44 -37 47
-32 110 2 35 12 75 21 89 9 13 15 34 14 47 -2 29 34 108 61 132 12 11 21 23
21 29 0 5 14 26 30 47 17 21 30 42 30 47 0 6 10 18 21 29 34 31 109 133 109
149 0 22 42 80 112 152 164 171 267 272 311 303 26 18 47 36 47 40 0 3 26 21
58 40 31 19 61 41 66 49 19 31 60 61 82 61 13 0 24 4 24 9 0 19 65 71 81 66 9
-3 22 1 29 10 7 8 21 15 32 15 23 0 59 18 73 36 15 19 91 41 170 49 39 4 85
13 103 20 30 13 32 17 32 62 l0 48 53 19 c28 10 91 28 140 41 48 13 93 27 100
33 15 12 53 20 142 27 39 4 93 12 120 20 28 8 88 16 135 18 47 2 97 10 111 17
22 10 32 9 68 -9 74 -38 211 -188 211 -232 0 -18 87 -99 107 -99 15 0 43 -56
43 -85 0 -13 7 -25 15 -29 10 -4 13 -14 9 -34 -5 -23 -1 -32 20 -45 36 -24 55
-21 68 11 7 15 26 45 44 67 26 34 62 90 110 176 6 10 30 40 53 65 23 26 51 66
62 90 12 24 43 66 70 93 27 27 49 54 49 58 1 13 37 53 49 53 14 0 31 -35 46
-94 7 -28 22 -78 33 -111 11 -33 25 -93 31 -132 11 -71 24 -96 97 -186 8 -10
19 -30 25 -44 5 -14 23 -44 40 -68 43 -59 52 -105 28 -142 -10 -15 -19 -34
-19 -41 0 -8 -16 -32 -35 -55 -19 -22 -35 -50 -35 -63 0 -55 -13 -84 -46 -103
-19 -11 -34 -25 -34 -30 0 -6 -23 -41 -51 -78 -28 -37 -58 -84 -66 -103 -15
-34 -25 -46 -90 -111 -18 -18 -33 -38 -33 -44 0 -6 -18 -37 -40 -68 -22 -30
-40 -60 -40 -66 0 -5 -8 -17 -17 -27 -26 -26 -26 -344 0 -459 51 -224 69 -307
82 -382 7 -46 26 -121 40 -167 14 -46 27 -92 27 -102 2 -20 -20 -93 -32 -109
-4 -5 -11 -21 -15 -34 -4 -13 -20 -35 -36 -49 -16 -13 -29 -32 -29 -43 0 -10
-4 -19 -9 -19 -5 0 -15 -16 -22 -35 -7 -19 -16 -35 -20 -35 -4 0 -19 -26 -35
-57 -15 -32 -33 -62 -41 -66 -7 -4 -13 -16 -13 -26 0 -9 -25 -66 -55 -126 -30
-59 -55 -116 -55 -126 0 -10 -7 -38 -14 -61 -21 -60 -1 -220 42 -343 6 -16 22
-69 37 -116 14 -47 44 -121 65 -165 22 -43 40 -89 40 -101 0 -12 5 -25 10 -28
6 -3 10 -16 10 -28 0 -12 7 -31 15 -41 8 -11 15 -28 15 -39 0 -10 5 -17 13
-15 18 7 19 243 0 284 -11 24 -12 40 -3 75 6 24 16 64 21 89 5 25 29 86 54
135 25 50 45 96 45 103 0 24 40 91 60 102 11 6 18 16 14 21 -3 6 5 27 19 47
13 20 33 55 44 77 54 109 132 250 181 330 7 11 20 35 29 53 9 17 20 32 24 32
4 0 13 17 19 38 7 20 23 51 36 69 13 17 36 60 51 95 15 35 37 77 50 94 13 17
23 41 23 53 0 12 8 34 17 48 23 34 23 156 1 199 -18 33 -38 113 -38 149 0 13
-6 39 -14 57 -8 18 -23 69 -33 113 -17 77 -19 80 -48 83 -19 2 -49 -7 -79 -24
-39 -22 -53 -38 -73 -80 -13 -30 -29 -56 -34 -59 -5 -4 -16 -23 -25 -43 -25
-62 -58 -89 -109 -90 -40 0 -45 2 -55 31 -18 48 -21 108 -9 147 15 47 70 158
99 200 36 52 101 159 111 182 6 16 15 28 20 28 10 0 75 89 103 140 10 19 34
56 52 83 19 26 34 51 34 57 0 5 11 16 24 25 12 8 36 39 51 68 15 28 38 66 51
84 13 17 24 36 24 41 0 18 39 44 58 38 44 -14 165 -159 186 -222 3 -10 24 -38
46 -62 22 -24 40 -47 40 -52 0 -5 29 -42 65 -82 36 -40 69 -84 72 -98 3 -14
18 -38 32 -54 14 -16 33 -36 41 -45 25 -28 70 -96 70 -107 0 -6 16 -26 36 -45
20 -18 45 -52 56 -73 11 -22 27 -46 34 -54 8 -7 14 -17 14 -22 0 -4 15 -23 33
-41 35 -36 97 -124 97 -138 0 -35 89 -96 124 -85 29 9 56 34 56 52 0 13 68
175 90 215 6 9 20 43 31 75 12 31 25 61 30 67 5 5 9 15 9 23 0 8 9 27 20 42
11 15 27 57 36 91 8 35 24 76 35 91 13 18 17 36 13 56 -4 18 2 45 14 73 11 24
23 53 27 64 15 38 15 316 0 385 -7 36 -19 97 -26 135 -11 68 -39 137 -58 150
-5 3 -17 29 -25 58 -8 28 -29 74 -47 102 -17 27 -38 68 -46 90 -17 49 -37 65
-79 65 -20 0 -38 7 -46 18 -17 22 -82 45 -107 37 -11 -3 -42 2 -70 11 -30 9
-62 13 -77 10 -26 -7 -27 -8 -20 -64 4 -31 9 -72 11 -91 5 -44 26 -132 36
-152 5 -9 13 -41 18 -70 31 -173 48 -197 156 -214 57 -9 128 -34 137 -48 12
-18 9 -46 -6 -80 -21 -47 -46 -133 -46 -156 0 -11 -9 -25 -20 -31 -11 -6 -20
-20 -20 -30 0 -11 -20 -48 -45 -81 -25 -34 -48 -73 -51 -88 -12 -53 -16 -62
-40 -88 -13 -14 -24 -36 -24 -48 0 -31 -27 -52 -48 -38 -10 5 -19 19 -20 29
-2 10 -12 28 -21 39 -10 11 -27 40 -38 65 -12 25 -32 51 -45 59 -14 7 -33 27
-43 44 -10 18 -36 53 -57 78 -21 26 -38 52 -38 58 0 15 -68 81 -83 81 -22 0
-97 111 -97 143 0 22 -12 41 -48 76 -48 47 -100 139 -104 183 -1 13 16 49 38
82 21 32 48 75 59 95 52 94 87 150 100 161 8 7 15 23 15 35 0 12 7 28 15 35 8
7 15 16 15 21 0 4 16 35 36 69 19 33 40 75 46 93 13 38 84 148 130 199 18 20
40 47 49 59 14 21 22 22 145 21 71 -1 138 -2 149 -3 11 -1 56 -1 100 0 106 2
301 -7 450 -19 141 -12 358 -22 432 -20 28 0 66 -5 85 -12 20 -9 84 -15 168
-17 173 -3 238 -7 328 -21 40 -6 78 -10 85 -7 6 2 26 -2 44 -10 18 -7 54 -13
80 -13 26 -1 66 -8 88 -16 22 -8 49 -18 60 -20 11 -3 29 -9 40 -14 11 -5 35
-11 53 -14 29 -5 32 -3 32 19 0 18 8 28 25 35 14 5 25 15 25 21 0 6 -7 8 -16
5 -9 -3 -28 0 -42 8 -34 18 -114 36 -172 39 -25 2 -51 7 -59 11 -8 5 -47 10
-87 12 -40 2 -83 8 -94 14 -11 6 -30 8 -42 4 -12 -3 -24 -1 -28 6 -6 9 -52 14
-156 17 -82 2 -161 9 -177 15 -19 7 -31 7 -40 0 -18 -15 -113 -13 -161 5 -26
9 -96 16 -196 19 -85 2 -168 7 -185 10 -16 3 -64 7 -105 10 -41 3 -89 9 -107
15 -23 7 -37 7 -50 -2 -15 -9 -26 -8 -49 3 -23 12 -70 15 -224 14 -149 -1
-202 1 -223 12 -16 8 -41 12 -58 8 -32 -6 -40 12 -14 34 8 7 15 18 15 25 0 7
7 18 15 25 8 7 15 20 15 29 0 10 11 28 25 41 33 31 55 76 55 112 0 18 8 36 21
47 19 15 20 22 11 85 -6 46 -6 79 1 97 8 19 7 41 -1 76 -7 26 -15 73 -18 103
-4 41 -12 62 -32 84 -24 25 -25 29 -11 39 13 8 14 15 5 33 -18 40 -65 25 -92
-29 -9 -18 -45 -76 -80 -129 -35 -53 -64 -100 -64 -104 0 -4 -15 -21 -34 -38
-47 -43 -111 -135 -120 -171 -4 -16 -25 -48 -46 -70 -36 -37 -82 -118 -110
-191 -6 -17 -26 -45 -43 -62 l-32 -30 -250 9 c-137 6 -261 9 -275 9 -86 -3
-254 0 -258 5 -3 3 1 11 10 18 8 6 30 37 48 67 18 30 38 59 45 65 7 5 32 47
55 92 23 45 58 99 77 120 48 51 133 178 133 198 0 8 4 15 10 15 5 0 12 11 16
25 3 14 11 29 18 33 12 8 48 57 59 82 4 8 16 29 27 45 11 17 23 37 26 45 4 8
15 24 25 35 30 34 89 126 89 139 0 7 11 27 25 46 22 29 24 41 19 94 -2 34 -6
81 -8 104 -1 24 -7 47 -13 50 -6 4 -10 34 -9 68 0 34 -4 67 -11 75 -11 13 -15
57 -14 127 1 29 -2 33 -19 27 -18 -6 -25 3 -21 28 4 23 -18 0 -44 -48 -16 -30
-33 -55 -37 -55 -4 0 -22 -28 -39 -62 -17 -35 -47 -76 -65 -91 -19 -16 -34
-35 -34 -43 0 -8 -9 -23 -20 -34 -12 -12 -36 -44 -54 -73 -19 -29 -43 -60 -54
-70 -11 -10 -23 -30 -27 -45 -3 -14 -33 -55 -65 -91 -44 -51 -77 -76 -140
-109 -74 -38 -85 -41 -104 -29 -11 8 -45 17 -75 20 -29 4 -64 13 -77 22 -13 8
-30 15 -39 15 -53 0 41 128 148 199 33 23 45 36 39 44 -16 20 -54 249 -53 314
1 18 -4 35 -9 38 -6 3 -10 28 -10 55 0 53 -7 80 -21 80 -5 0 -9 -7 -9 -15 0
-8 -4 -15 -9 -15 -5 0 -16 7 -25 15 -19 19 -32 19 -40 0z m987 -1764 c11 -11
-38 -114 -60 -127 -10 -6 -27 -30 -38 -53 -11 -22 -23 -41 -27 -41 -5 0 -8 -9
-8 -20 0 -21 -127 -194 -159 -216 -18 -13 -21 -11 -39 19 -10 17 -25 47 -32
65 -7 17 -18 32 -26 32 -7 0 -15 8 -18 18 -3 9 -18 24 -33 33 -16 8 -34 29
-42 45 -37 78 -51 99 -71 102 -13 2 -28 19 -41 48 -12 24 -25 47 -30 50 -24
14 -4 32 54 46 51 13 106 15 312 11 138 -3 253 -8 258 -12z"/>
<path d="M4550 5775 c0 -9 -10 -26 -23 -38 -12 -12 -36 -42 -52 -67 -17 -25
-33 -47 -36 -50 -3 -3 -12 -22 -18 -42 -7 -21 -17 -40 -22 -43 -5 -4 -9 -17
-9 -30 0 -12 -7 -26 -15 -29 -9 -3 -21 -19 -26 -36 -6 -16 -15 -30 -20 -30 -5
0 -9 -5 -9 -10 0 -6 -16 -34 -35 -63 -19 -28 -35 -57 -35 -63 0 -17 -50 -115
-71 -139 -27 -31 -78 -147 -80 -180 0 -16 2 -40 6 -52 6 -18 0 -29 -24 -50
-34 -30 -38 -55 -20 -113 6 -19 12 -69 14 -110 5 -105 40 -296 73 -395 17 -48
69 -226 81 -275 27 -108 40 -145 55 -156 9 -6 16 -18 16 -27 0 -9 13 -39 30
-67 l29 -50 -29 -50 c-17 -28 -30 -59 -30 -68 0 -9 -6 -27 -13 -39 -67 -119
-111 -202 -118 -223 -19 -59 -41 -113 -71 -177 -31 -65 -33 -74 -35 -199 -3
-123 -1 -134 22 -178 14 -26 25 -54 25 -63 0 -9 24 -66 54 -127 29 -61 60
-129 67 -151 8 -22 21 -48 30 -58 9 -10 22 -37 29 -60 18 -54 35 -81 87 -135
72 -76 108 -33 60 71 -13 28 -27 70 -30 92 -4 22 -20 66 -37 98 -31 56 -31 58
-19 114 7 32 15 63 19 68 4 6 11 32 14 58 5 32 17 59 37 81 16 19 29 38 29 44
0 16 37 125 53 157 57 115 119 251 143 315 15 41 34 84 41 95 7 11 13 27 13
36 0 9 9 28 20 42 11 14 20 36 20 50 0 13 7 30 15 37 16 13 42 65 70 140 9 25
25 62 36 82 10 20 19 45 19 55 0 10 7 36 15 58 23 64 18 113 -19 203 -19 45
-39 105 -45 133 -6 28 -15 58 -20 68 -5 9 -14 52 -20 96 -6 44 -16 84 -21 89
-6 6 -10 24 -10 41 0 61 -75 97 -124 60 -11 -8 -26 -15 -34 -15 -12 0 -69 -38
-99 -67 -7 -6 -17 -13 -21 -15 -5 -1 -21 -22 -36 -45 -14 -24 -31 -43 -37 -43
-19 0 -66 -45 -61 -58 2 -7 -4 -25 -13 -39 -17 -25 -18 -26 -31 -8 -16 22 -19
141 -4 150 6 3 10 18 10 33 0 15 7 40 15 56 8 15 15 35 15 42 0 8 5 14 10 14
6 0 10 9 10 19 0 11 5 23 11 26 5 4 21 31 34 61 13 30 31 62 40 70 8 8 15 22
15 30 0 7 14 36 30 63 17 26 35 63 41 80 6 17 14 31 19 31 4 0 13 15 20 33 22
58 34 81 87 161 29 43 53 82 53 86 0 4 7 21 15 36 18 35 20 98 2 116 -12 13
-37 115 -37 154 0 11 -9 40 -21 63 -26 54 -49 128 -49 159 0 27 -38 82 -57 82
-7 0 -13 -7 -13 -15z"/>
<path d="M7715 3902 c-11 -2 -24 -8 -29 -13 -6 -5 -20 -9 -31 -9 -12 0 -25 -3
-29 -7 -8 -8 -46 -13 -102 -13 -17 0 -38 -6 -48 -13 -16 -12 -16 -20 8 -137
14 -69 30 -138 35 -155 35 -106 51 -170 51 -198 0 -18 5 -38 12 -45 20 -20
149 -15 223 9 101 34 104 30 163 -196 24 -91 60 -196 71 -208 5 -5 16 -1 24 8
14 13 16 33 12 113 -5 109 -13 145 -45 217 -34 79 -51 134 -45 146 4 5 -2 33
-13 62 -11 29 -32 90 -47 137 -15 47 -31 90 -36 96 -5 6 -20 42 -34 80 -32 91
-84 137 -140 126z"/>
</g>
</svg>
